<svg width="44" height="42" viewBox="0 0 44 42" fill="none" xmlns="http://www.w3.org/2000/svg">
<path d="M29.6364 27.6667C29.6364 25.5619 23.6533 23.8571 16.2727 23.8571M29.6364 27.6667C29.6364 29.7714 23.6533 31.4762 16.2727 31.4762C8.89218 31.4762 2.90909 29.7714 2.90909 27.6667M29.6364 27.6667V37.0705C29.6364 39.24 23.6533 41 16.2727 41C8.89218 41 2.90909 39.2419 2.90909 37.0705V27.6667M29.6364 27.6667C36.9367 27.6667 43 25.7867 43 23.8571V4.80952M16.2727 23.8571C8.89218 23.8571 2.90909 25.5619 2.90909 27.6667M16.2727 23.8571C7.83836 23.8571 1 21.9771 1 20.0476V10.5238M16.2727 6.71429C7.83836 6.71429 1 8.41905 1 10.5238M1 10.5238C1 12.6286 7.83836 14.3333 16.2727 14.3333C16.2727 16.2629 22.483 18.1429 29.7834 18.1429C37.0818 18.1429 43 16.2629 43 14.3333M43 4.80952C43 2.70476 37.0818 1 29.7834 1C22.483 1 16.5667 2.70476 16.5667 4.80952M43 4.80952C43 6.91429 37.0818 8.61905 29.7834 8.61905C22.4849 8.61905 16.5667 6.91429 16.5667 4.80952M16.5667 4.80952V24.1733" stroke="#444444" stroke-width="2"/>
</svg>
