<svg width="45" height="45" viewBox="0 0 45 45" fill="none" xmlns="http://www.w3.org/2000/svg">
<path d="M22.5 0C10.0921 0 0 10.0921 0 22.5C0 34.9078 10.0921 45 22.5 45C34.9078 45 45 34.9078 45 22.5C45 10.0921 34.9078 0 22.5 0ZM23.6277 3.1851C29.3958 3.51495 34.4749 6.35895 37.7964 10.6407C36.9198 10.6182 36.0472 10.6128 35.1783 10.6258C33.6699 10.6509 32.1629 10.7307 30.6603 10.8652C30.384 10.2949 29.9527 9.81389 29.4157 9.47726C28.8788 9.14062 28.2579 8.96197 27.6241 8.96175C27.4671 8.96177 27.3103 8.97274 27.1548 8.9946C26.098 6.98839 24.9201 5.04831 23.6277 3.1851ZM20.8926 3.2211C22.5292 5.45715 23.9481 7.72695 25.1622 10.0282C24.7106 10.51 24.4102 11.1136 24.2982 11.7643C22.199 12.1734 20.1218 12.6885 18.0747 13.3078C17.82 12.9634 17.502 12.6707 17.1378 12.4452C17.9869 9.41445 19.1749 6.34365 20.6937 3.23595C20.7598 3.2301 20.8265 3.22695 20.8926 3.2211ZM17.9946 3.681C16.7256 6.45525 15.7131 9.21915 14.9598 11.9655C14.5041 12.0202 14.0644 12.1672 13.6674 12.3976C13.2705 12.628 12.9248 12.937 12.6513 13.3056C10.6209 12.658 8.56443 12.0954 6.4872 11.619C9.19831 7.62999 13.3028 4.79865 17.9946 3.681ZM36.5 12.8691C37.4413 12.8749 38.3872 12.9051 39.3381 12.9546C40.4746 14.9564 41.2424 17.1461 41.6048 19.4193C38.8822 19.8621 36.2317 20.4755 33.6514 21.2486C33.3729 20.9036 33.0291 20.6169 32.6397 20.4049C32.2503 20.1929 31.823 20.0597 31.3821 20.0128C30.9485 18.2861 30.4201 16.5844 29.7994 14.9157C30.3575 14.4448 30.7479 13.8056 30.9118 13.0941C32.7564 12.9339 34.618 12.8569 36.5 12.8691ZM5.2794 13.662C7.5753 14.1673 9.8154 14.7582 11.9902 15.4525C11.9904 15.4571 11.9905 15.4615 11.9907 15.466C9.0621 16.6689 6.18255 18.0873 3.35115 19.7127C3.65402 17.6028 4.30566 15.5581 5.2794 13.662ZM24.6717 13.9698C24.9634 14.4972 25.3911 14.9369 25.9102 15.2432C26.4293 15.5494 27.021 15.7111 27.6237 15.7113C27.654 15.711 27.6843 15.7102 27.7146 15.7091C28.3029 17.2844 28.8041 18.8909 29.2158 20.5213C29.0468 20.6285 28.8876 20.7505 28.7402 20.8858C25.5668 18.8176 22.2167 17.0342 18.729 15.5565C18.7318 15.5181 18.7339 15.4797 18.7353 15.4413C20.6883 14.8515 22.6693 14.3604 24.6717 13.9698ZM12.8277 17.5432C13.0758 17.8255 13.3694 18.0642 13.6962 18.2498C13.1418 22.5882 13.2646 26.8659 14.1107 31.0504C12.1169 32.5084 10.1961 34.0635 8.35515 35.7102C5.1264 32.2547 3.15 27.6147 3.15 22.5C3.15 22.4788 3.1518 22.4586 3.1518 22.4374C6.32295 20.5322 9.5463 18.8955 12.8277 17.5432ZM17.8321 17.6148C21.2699 19.0676 24.5688 20.8293 27.688 22.8784C27.6638 23.0408 27.6515 23.2048 27.6511 23.3689C27.6511 23.376 27.6511 23.383 27.6511 23.3901C23.6191 25.0663 19.7698 27.1611 16.0988 29.6514C15.4643 26.0523 15.3968 22.3839 15.8706 18.6516C16.6226 18.5369 17.3138 18.1716 17.8321 17.6148ZM41.8288 21.6621C41.8405 21.9397 41.85 22.2188 41.85 22.4995C41.8529 25.2402 41.2726 27.9501 40.1477 30.4492C38.2537 28.4324 36.229 26.5425 34.0866 24.7918C34.293 24.3482 34.4005 23.865 34.4016 23.3757C36.839 22.6493 39.3196 22.077 41.8288 21.6621ZM28.4107 25.5001C28.8964 26.0964 29.5712 26.5088 30.3232 26.6692C30.8155 31.1283 30.6653 35.699 29.9039 40.3853C27.556 41.355 25.0402 41.8527 22.5 41.85C21.8354 41.85 21.1783 41.8167 20.5312 41.7514C18.7258 38.5726 17.4222 35.33 16.6032 32.0283C20.3508 29.408 24.2815 27.2241 28.4107 25.5001ZM32.5422 26.4272C34.8547 28.3115 37.0262 30.3625 39.0393 32.5638C37.3861 35.2764 35.0916 37.5412 32.3577 39.159C32.9359 34.8381 33.0057 30.5896 32.5422 26.428V26.4272ZM14.6727 33.4269C15.3882 36.0787 16.398 38.6906 17.7115 41.2537C14.8673 40.5306 12.2258 39.1672 9.98865 37.2677C11.5173 35.9086 13.0783 34.6261 14.6727 33.4269Z" fill="#444444"/>
</svg>
