<svg width="18" height="18" viewBox="0 0 18 18" fill="none" xmlns="http://www.w3.org/2000/svg">
<path d="M6.29836 11C5.64603 11 5.00832 10.8066 4.4659 10.4442C3.92348 10.0817 3.50072 9.56653 3.25107 8.96376C3.00142 8.36098 2.93611 7.69769 3.06339 7.05779C3.19067 6.41788 3.50483 5.8301 3.96613 5.36879L7.3695 1.9662C7.98804 1.34755 8.82697 1 9.70173 1C10.5765 1 11.4154 1.34755 12.034 1.9662C12.6525 2.58485 13 3.42391 13 4.29881C13 5.17371 12.6525 6.01278 12.034 6.63142L11.6654 6.99941L10.7222 6.05744L11.0935 5.68611C11.4607 5.31711 11.6666 4.81754 11.6661 4.29693C11.6656 3.77631 11.4587 3.27714 11.0908 2.90884C10.7164 2.55144 10.2187 2.35203 9.70106 2.35203C9.18347 2.35203 8.68576 2.55144 8.31132 2.90884L4.90929 6.31143C4.72666 6.49389 4.58177 6.71057 4.48292 6.94907C4.38407 7.18757 4.33319 7.44322 4.33319 7.7014C4.33319 7.95958 4.38407 8.21523 4.48292 8.45373C4.58177 8.69223 4.72666 8.90891 4.90929 9.09136C5.28373 9.44877 5.78144 9.64818 6.29903 9.64818C6.81663 9.64818 7.31433 9.44877 7.68877 9.09136L8.63126 10.034C8.32556 10.3413 7.96197 10.5849 7.56153 10.7507C7.1611 10.9165 6.73176 11.0012 6.29836 11Z" fill="#444444"/>
<path d="M11.2984 9.99999C10.646 10.0001 10.0083 9.80663 9.4659 9.44418C8.92348 9.08173 8.50072 8.56654 8.25107 7.96376C8.00142 7.36098 7.93611 6.6977 8.06339 6.05779C8.19067 5.41789 8.50483 4.8301 8.96613 4.36879L9.33473 4.0008L10.2772 4.94411L9.90929 5.3121C9.54081 5.68066 9.3338 6.18052 9.3338 6.70173C9.3338 7.22294 9.54081 7.72281 9.90929 8.09137C10.2837 8.44877 10.7814 8.64818 11.299 8.64818C11.8166 8.64818 12.3143 8.44877 12.6888 8.09137L16.0915 4.68811C16.4593 4.31932 16.6658 3.8197 16.6658 3.29881C16.6658 2.77793 16.4593 2.2783 16.0915 1.90951C15.717 1.55211 15.2193 1.3527 14.7017 1.3527C14.1841 1.3527 13.6864 1.55211 13.312 1.90951L12.3695 0.9662C12.988 0.347552 13.827 0 14.7017 0C15.5765 0 16.4154 0.347552 17.034 0.9662C17.6525 1.58485 18 2.42391 18 3.29881C18 4.17371 17.6525 5.01278 17.034 5.63142L13.6319 9.03335C13.3262 9.34067 12.9627 9.58433 12.5622 9.75025C12.1618 9.91617 11.7318 10.0011 11.2984 9.99999Z" fill="#444444"/>
<path d="M13.75 18H1.25C0.918581 17.9997 0.600831 17.8679 0.366482 17.6335C0.132133 17.3992 0.000330923 17.0814 0 16.75V4.25C0.000330923 3.91858 0.132133 3.60083 0.366482 3.36648C0.600831 3.13213 0.918581 3.00033 1.25 3H3.75V4.25H1.25V16.75H13.75V10.5H15V16.75C14.9997 17.0814 14.8679 17.3992 14.6335 17.6335C14.3992 17.8679 14.0814 17.9997 13.75 18Z" fill="#444444"/>
</svg>
