<svg width="18" height="19" viewBox="0 0 18 19" fill="none" xmlns="http://www.w3.org/2000/svg">
<path d="M14.9359 13.1002C14.5431 13.1017 14.1547 13.1835 13.7939 13.3406C13.4332 13.4978 13.1075 13.727 12.8365 14.0146L5.72737 10.4158C5.90225 9.87931 5.90225 9.30024 5.72737 8.7638L12.8481 5.10001C13.3582 5.64376 14.0498 5.97623 14.7887 6.03281C15.5275 6.08939 16.2608 5.86603 16.8459 5.40615C17.4311 4.94627 17.8263 4.28272 17.9548 3.54448C18.0832 2.80623 17.9358 2.04603 17.5411 1.41164C17.1464 0.777241 16.5326 0.313969 15.8191 0.111866C15.1056 -0.0902371 14.3433 -0.0167323 13.6803 0.318093C13.0174 0.652919 12.5012 1.22515 12.232 1.92355C11.9629 2.62195 11.9601 3.39664 12.2241 4.09704L5.17334 7.72543C4.79254 7.2543 4.27703 6.91385 3.69747 6.75074C3.1179 6.58763 2.50266 6.60985 1.93607 6.81436C1.36948 7.01887 0.879281 7.39565 0.53267 7.89306C0.186058 8.39047 0 8.98415 0 9.59273C0 10.2013 0.186058 10.795 0.53267 11.2924C0.879281 11.7898 1.36948 12.1666 1.93607 12.3711C2.50266 12.5756 3.1179 12.5978 3.69747 12.4347C4.27703 12.2716 4.79254 11.9312 5.17334 11.46L12.2066 15.0412C12.0878 15.364 12.0266 15.7056 12.0258 16.0501C12.0258 16.6335 12.1968 17.2039 12.5172 17.689C12.8377 18.1741 13.2931 18.5522 13.8259 18.7754C14.3587 18.9987 14.945 19.0571 15.5106 18.9433C16.0763 18.8295 16.5959 18.5485 17.0037 18.136C17.4115 17.7234 17.6892 17.1978 17.8017 16.6256C17.9142 16.0534 17.8565 15.4602 17.6358 14.9212C17.4151 14.3822 17.0413 13.9215 16.5618 13.5973C16.0823 13.2732 15.5185 13.1002 14.9418 13.1002H14.9359Z" fill="#444444"/>
</svg>
